<svg xmlns="http://www.w3.org/2000/svg" viewBox="0 0 512 302.37"><defs><linearGradient id="a" x1="0" x2="512" y1="107.03" y2="107.03" gradientUnits="userSpaceOnUse"><stop offset="0" stop-color="#00fff7"/><stop offset="1" stop-color="#1c33ff"/></linearGradient><linearGradient id="b" x1="0" x2="512" y1="195.34" y2="195.34" gradientUnits="userSpaceOnUse"><stop offset="0" stop-color="#a040ff"/><stop offset="1" stop-color="#361cff"/></linearGradient></defs><path fill="url(#a)" d="M512 0c-63.92 25.93-154.95 42.12-256 42.12S63.92 25.93 0 0c19.95 47.97 76.38 87.26 150.57 106.69-24.15 5.51-42.95 16.82-57.48 30.13-40.99 34.05-45.56 77.25-45.56 77.25s50.44-61.67 178.23-71.09c2.33-.13 5.05-.3 8.13-.53.06 0 .12 0 .19-.01 56.78-4.17 223.98-15.85 277.54-139.68.14-.31.26-.65.39-.98l-.26.26c.2-1.33.26-2.04.26-2.04Z"/><path fill="url(#b)" d="M0 302.37c63.92-25.93 154.95-42.12 256-42.12s192.08 16.19 256 42.12c-19.95-47.97-76.38-87.26-150.57-106.69 24.15-5.51 42.95-16.82 57.48-30.13 40.99-34.05 45.56-77.25 45.56-77.25s-50.44 61.67-178.23 71.09c-2.33.13-5.05.3-8.13.53-.06 0-.12 0-.19.01C221.14 164.1 53.94 175.78.38 299.61c-.14.31-.26.65-.39.98l.26-.26c-.2 1.33-.26 2.04-.26 2.04Z"/></svg>