<svg xmlns="http://www.w3.org/2000/svg" viewBox="0 0 450.65 342.07"><defs><linearGradient id="a" x1="86.99" x2="363.65" y1="57.83" y2="57.83" gradientUnits="userSpaceOnUse"><stop offset="0" stop-color="#00fff7"/><stop offset="1" stop-color="#1c33ff"/></linearGradient><linearGradient id="b" x1="86.99" x2="363.65" y1="105.55" y2="105.55" gradientUnits="userSpaceOnUse"><stop offset="0" stop-color="#a040ff"/><stop offset="1" stop-color="#361cff"/></linearGradient></defs><path fill="#fff" d="M25.07 199.39H1.46v-8.93h35.59c3.13 0 5.15.84 6.07 2.53q1.38 2.535-1.38 6.18l-23.23 30.75h23.97v8.93H6.53c-3.13 0-5.15-.84-6.07-2.53q-1.38-2.535 1.38-6.18zM52.09 214.65c0-4.17.43-7.77 1.3-10.8s2.31-5.53 4.32-7.52c2.01-1.98 4.67-3.46 7.97-4.43s7.41-1.45 12.32-1.45h1.49c4.91 0 9.03.48 12.36 1.45s5.99 2.45 8 4.43c2.01 1.99 3.44 4.49 4.28 7.52s1.27 6.63 1.27 10.8c0 4.47-.41 8.25-1.23 11.35s-2.23 5.6-4.24 7.48c-2.01 1.89-4.67 3.25-7.97 4.09s-7.46 1.27-12.47 1.27H78c-4.96 0-9.11-.42-12.43-1.27-3.33-.84-5.99-2.21-8-4.09-2.01-1.89-3.42-4.38-4.24-7.48s-1.23-6.89-1.23-11.35Zm28.37 15.26c2.93 0 5.17-.38 6.74-1.15 1.56-.77 2.69-1.82 3.39-3.16q1.035-2.01 1.23-4.8c.12-1.86.19-3.91.19-6.14s-.06-4.28-.19-6.14q-.18-2.79-1.23-4.8c-.7-1.34-1.82-2.39-3.39-3.16s-3.81-1.15-6.74-1.15h-3.42c-2.88 0-5.11.38-6.7 1.15s-2.73 1.82-3.42 3.16q-1.05 2.01-1.23 4.8c-.12 1.86-.19 3.91-.19 6.14s.06 4.28.19 6.14q.18 2.79 1.23 4.8c.69 1.34 1.84 2.4 3.42 3.16 1.59.77 3.82 1.15 6.7 1.15zM118.8 214.65c0-4.17.43-7.77 1.3-10.8s2.31-5.53 4.32-7.52c2.01-1.98 4.67-3.46 7.97-4.43s7.41-1.45 12.32-1.45h1.49c4.91 0 9.03.48 12.36 1.45s5.99 2.45 8 4.43c2.01 1.99 3.44 4.49 4.28 7.52s1.27 6.63 1.27 10.8c0 4.47-.41 8.25-1.23 11.35s-2.23 5.6-4.24 7.48c-2.01 1.89-4.67 3.25-7.97 4.09s-7.46 1.27-12.47 1.27h-1.49c-4.96 0-9.11-.42-12.43-1.27-3.33-.84-5.99-2.21-8-4.09-2.01-1.89-3.42-4.38-4.24-7.48s-1.23-6.89-1.23-11.35Zm28.37 15.26c2.93 0 5.17-.38 6.74-1.15 1.56-.77 2.69-1.82 3.39-3.16q1.035-2.01 1.23-4.8c.12-1.86.19-3.91.19-6.14s-.06-4.28-.19-6.14q-.18-2.79-1.23-4.8c-.7-1.34-1.82-2.39-3.39-3.16s-3.81-1.15-6.74-1.15h-3.42c-2.88 0-5.11.38-6.7 1.15s-2.73 1.82-3.42 3.16q-1.05 2.01-1.23 4.8c-.12 1.86-.19 3.91-.19 6.14s.06 4.28.19 6.14q.18 2.79 1.23 4.8c.69 1.34 1.84 2.4 3.42 3.16 1.59.77 3.82 1.15 6.7 1.15zM213.29 238.85v-25.98c0-1.99-.05-3.8-.15-5.44s-.41-3.05-.93-4.24-1.3-2.12-2.35-2.79c-1.04-.67-2.51-1-4.39-1h-5.06v39.46h-13.4v-48.4h43.03c4.91 0 8.87.48 11.88 1.45 3 .97 5.32 2.45 6.96 4.43 1.64 1.99 2.73 4.49 3.28 7.52s.82 6.63.82 10.8v24.2h-13.4v-24.2c0-2.23-.03-4.28-.07-6.14-.05-1.86-.32-3.46-.82-4.8s-1.27-2.39-2.31-3.16-2.58-1.15-4.62-1.15h-5.06v39.46h-13.4ZM267.12 214.65c0-4.17.43-7.77 1.3-10.8s2.31-5.53 4.32-7.52c2.01-1.98 4.67-3.46 7.97-4.43s7.41-1.45 12.32-1.45h1.49c4.91 0 9.03.48 12.36 1.45 3.32.97 5.99 2.45 8 4.43 2.01 1.99 3.44 4.49 4.28 7.52s1.27 6.63 1.27 10.8c0 4.47-.41 8.25-1.23 11.35s-2.23 5.6-4.24 7.48c-2.01 1.89-4.67 3.25-7.97 4.09s-7.46 1.27-12.47 1.27h-1.49c-4.96 0-9.11-.42-12.43-1.27-3.33-.84-5.99-2.21-8-4.09-2.01-1.89-3.42-4.38-4.24-7.48s-1.23-6.89-1.23-11.35Zm28.36 15.26c2.93 0 5.18-.38 6.74-1.15s2.69-1.82 3.39-3.16q1.035-2.01 1.23-4.8c.12-1.86.19-3.91.19-6.14s-.06-4.28-.19-6.14c-.12-1.86-.54-3.46-1.23-4.8-.7-1.34-1.82-2.39-3.39-3.16-1.56-.77-3.81-1.15-6.74-1.15h-3.42c-2.88 0-5.11.38-6.7 1.15s-2.73 1.82-3.42 3.16q-1.05 2.01-1.23 4.8c-.12 1.86-.19 3.91-.19 6.14s.06 4.28.19 6.14q.18 2.79 1.23 4.8c.69 1.34 1.83 2.4 3.42 3.16 1.59.77 3.82 1.15 6.7 1.15zM335.32 238.85v-48.4h23.16c7.64 0 13.5 1.23 17.57 3.69s6.11 6.32 6.11 11.58c0 4.07-1.04 7.23-3.13 9.49-2.08 2.26-5.16 3.83-9.23 4.73l13.7 18.91h-15.63l-13.03-17.87h-6.1v17.87h-13.4Zm13.4-26.81h10.72q2.685 0 4.47-.48c1.19-.32 2.15-.77 2.87-1.34q1.08-.855 1.53-2.01c.45-1.155.45-1.63.45-2.57 0-1.79-.66-3.28-1.97-4.47-1.32-1.19-3.76-1.79-7.33-1.79h-10.72v12.66ZM450.65 238.85h-13.1l-16.75-36.04-16.75 36.04h-13.1l18.91-41.17c.99-2.13 2.47-3.87 4.43-5.21s4.16-2.01 6.59-2.01 4.54.67 6.48 2.01 3.4 3.08 4.39 5.21l18.91 41.17Z"/><path fill="url(#a)" d="M363.65 0c-34.54 14.01-83.73 22.76-138.33 22.76S121.53 14.01 86.99 0c10.78 25.92 41.27 47.15 81.36 57.65-13.05 2.98-23.21 9.09-31.06 16.28-22.15 18.4-24.62 41.74-24.62 41.74s27.26-33.32 96.31-38.41c1.26-.07 2.73-.16 4.39-.29h.1c30.68-2.25 121.03-8.56 149.97-75.48.07-.17.14-.35.21-.53l-.14.14c.11-.72.14-1.1.14-1.1"/><path fill="url(#b)" d="M86.99 163.39c34.54-14.01 83.73-22.76 138.33-22.76s103.79 8.75 138.33 22.76c-10.78-25.92-41.27-47.15-81.36-57.65 13.05-2.98 23.21-9.09 31.06-16.28 22.15-18.4 24.62-41.74 24.62-41.74s-27.26 33.32-96.31 38.41c-1.26.07-2.73.16-4.39.29h-.1c-30.68 2.25-121.03 8.56-149.97 75.48-.07.17-.14.35-.21.53l.14-.14c-.11.72-.14 1.1-.14 1.1"/><path fill="#8c80a0" d="M51.31 325.81V276.4h5.02v46.1h10.51v3.31zM95.11 325.81V276.4h5.02v49.41zM141.98 326.38c-3.3 0-5.72-1.2-7.24-3.61-1.53-2.41-2.29-6.37-2.29-11.89v-20.02c0-2.11.12-4.08.37-5.91q.375-2.745 1.47-4.8c.73-1.38 1.81-2.45 3.23-3.23s3.33-1.17 5.71-1.17 4.17.38 5.49 1.15 2.3 1.84 2.93 3.22 1.03 2.97 1.2 4.79.25 3.78.25 5.9v4.13h-5.12v-7.64c0-2.56-.3-4.54-.91-5.94s-1.94-2.09-4.01-2.09-3.57.84-4.38 2.51c-.81 1.68-1.21 4.55-1.21 8.63v20.16c0 4.45.34 7.63 1.01 9.53q1.005 2.85 4.38 2.85c3.375 0 3.54-.95 4.23-2.85.68-1.9 1.03-5.06 1.03-9.48v-6.23h-5.09v-3.57h10.07v24.99h-3.3l-.54-2.86c-.79 1.1-1.74 1.95-2.85 2.54s-2.59.88-4.43.88ZM185.52 325.81V276.4h5.02v21.39h10.85V276.4h5.02v49.41h-5.02v-24.88h-10.85v24.88zM241.04 325.81v-46.16h-6.2v-3.26h16.74v3.26h-5.56v46.16h-4.99ZM280 325.81V276.4h8.66c3.08 0 5.4.37 6.97 1.12s2.64 1.93 3.2 3.55.85 3.75.88 6.39v.65c0 2.9-.22 5.26-.66 7.06-.44 1.81-1.49 3.16-3.15 4.06q1.92.765 2.91 2.58c.99 1.815 1.11 2.64 1.35 4.28s.35 3.36.35 5.18v.87c-.05 3.13-.36 5.7-.94 7.72s-1.61 3.52-3.08 4.49-3.58 1.46-6.32 1.46zm5.02-28.18h4.51c1.08 0 1.95-.08 2.63-.24.67-.16 1.19-.54 1.55-1.14s.61-1.53.76-2.78.22-2.97.22-5.14v-.39c-.02-2.32-.23-4.04-.62-5.15s-1.02-1.84-1.87-2.19-1.99-.52-3.4-.52h-3.77v17.55Zm0 24.59h5.32c1.39 0 2.46-.31 3.2-.94s1.25-1.74 1.53-3.34q.42-2.4.42-6.72v-.45c-.02-3.5-.35-6-.99-7.51s-1.99-2.26-4.06-2.26h-5.42v21.23ZM340.78 326.38c-2.85 0-5.04-.54-6.55-1.63s-2.55-2.75-3.1-4.98c-.55-2.24-.83-5.08-.83-8.52v-21.03c0-2.84.24-5.35.71-7.52s1.46-3.87 2.98-5.1 3.86-1.84 7.02-1.84c2.38 0 4.26.35 5.63 1.05s2.38 1.7 3.02 2.99 1.05 2.82 1.23 4.58.27 3.71.27 5.84v21.03q0 5.16-.81 8.52t-3.03 4.98c-1.48 1.09-3.66 1.63-6.53 1.63Zm0-3.43c1.44 0 2.54-.35 3.32-1.04s1.31-1.89 1.6-3.59.44-4.06.44-7.08v-21.37q0-5.58-.96-8.1c-.64-1.68-2.03-2.51-4.16-2.51-2.25 0-3.76.84-4.53 2.53-.77 1.68-1.16 4.37-1.16 8.06v21.39c0 3.01.15 5.37.44 7.08.29 1.7.83 2.9 1.62 3.59s1.92 1.04 3.4 1.04ZM378.89 325.81l7.85-25.8-7.34-23.61h4.61l5.69 18.5 5.46-18.5h4.18l-7.48 25.47 7.38 23.95h-4.48l-5.93-19.09-5.76 19.09h-4.18ZM51.31 337.05h348.03v5.02H51.31zM51.31 260.06h348.03v5.02H51.31z"/></svg>