<svg xmlns="http://www.w3.org/2000/svg" viewBox="0 0 276.66 163.39"><defs><linearGradient id="a" x1="0" x2="276.66" y1="57.83" y2="57.83" gradientUnits="userSpaceOnUse"><stop offset="0" stop-color="#00fff7"/><stop offset="1" stop-color="#1c33ff"/></linearGradient><linearGradient id="b" x1="0" x2="276.66" y1="105.55" y2="105.55" gradientUnits="userSpaceOnUse"><stop offset="0" stop-color="#a040ff"/><stop offset="1" stop-color="#361cff"/></linearGradient></defs><path fill="url(#a)" d="M276.66 0c-34.54 14.01-83.73 22.76-138.33 22.76S34.54 14.01 0 0c10.78 25.92 41.27 47.15 81.36 57.65-13.05 2.98-23.21 9.09-31.06 16.28-22.15 18.4-24.62 41.74-24.62 41.74s27.26-33.32 96.31-38.41c1.26-.07 2.73-.16 4.39-.29h.1c30.68-2.25 121.03-8.56 149.97-75.48.07-.17.14-.35.21-.53l-.14.14c.11-.72.14-1.1.14-1.1"/><path fill="url(#b)" d="M0 163.39c34.54-14.01 83.73-22.76 138.33-22.76s103.79 8.75 138.33 22.76c-10.78-25.92-41.27-47.15-81.36-57.65 13.05-2.98 23.21-9.09 31.06-16.28 22.15-18.4 24.62-41.74 24.62-41.74s-27.26 33.32-96.31 38.41c-1.26.07-2.73.16-4.39.29h-.1C119.5 88.67 29.15 94.99.21 161.9c-.07.17-.14.35-.21.53l.14-.14c-.11.72-.14 1.1-.14 1.1"/></svg>