<svg xmlns="http://www.w3.org/2000/svg" viewBox="0 0 100 96.76"><defs><linearGradient id="a" x1="99.85" x2="24.94" y1="19.35" y2="94.26" gradientUnits="userSpaceOnUse"><stop offset="0" stop-color="#00fff7"/><stop offset="1" stop-color="#1c33ff"/></linearGradient></defs><path fill="#31195d" d="M14.01 80.94s5.76 5.56 12.77 3.93c7.01-1.64 63.71-38.38 51.12-70.58S5.05 25.77 5.05 25.77L9.72 59.4"/><rect width="78.42" height="76.68" x="21.58" y="20.07" fill="url(#a)" rx="12.35" ry="12.35"/><path fill="#31195d" d="M100 79.89v4.51c0 6.82-5.53 12.35-12.35 12.35H33.94c-6.82 0-12.35-5.53-12.35-12.35v-3.26L48.62 53.9a5.98 5.98 0 0 1 8.54.05l8.51 8.78a5.97 5.97 0 0 0 8.59 0c2.32-2.4 6.16-2.43 8.53-.07l17.22 17.22Z"/><circle cx="78.07" cy="42.5" r="7.15" fill="#fff"/><path fill="#31195d" d="M14.01 80.94V35.19c0-11.54 9.36-20.9 20.9-20.9H77.9l-.45-1.91C75.49 4.06 67.35-1.27 58.94.26L13.17 8.62C4.4 10.22-1.39 18.67.29 27.43L8.13 68.4c.88 4.61 2.9 8.92 5.88 12.54"/></svg>