<svg xmlns="http://www.w3.org/2000/svg" xmlns:xlink="http://www.w3.org/1999/xlink" viewBox="0 0 100 60.94"><defs><linearGradient id="a" x1="31.77" x2="68.22" y1="49.76" y2="49.76" gradientUnits="userSpaceOnUse"><stop offset="0" stop-color="#00fff7"/><stop offset="1" stop-color="#1c33ff"/></linearGradient><linearGradient xlink:href="#a" id="b" x1="75.77" x2="75.77" y1="18.02" y2="41.43"/><linearGradient xlink:href="#a" id="c" x1="88.66" x2="88.66" y1="18.02" y2="41.43"/><linearGradient xlink:href="#a" id="d" x1="50" x2="50" y1="18.02" y2="41.43"/><linearGradient xlink:href="#a" id="e" x1="62.89" x2="62.89" y1="18.02" y2="41.43"/><linearGradient xlink:href="#a" id="f" x1="37.11" x2="37.11" y1="18.02" y2="41.43"/><linearGradient xlink:href="#a" id="g" x1="24.22" x2="24.22" y1="18.02" y2="41.43"/><linearGradient xlink:href="#a" id="h" x1="11.33" x2="11.33" y1="18.02" y2="41.43"/><linearGradient xlink:href="#a" id="i" x1="75.77" x2="75.77" y1="18.02" y2="41.43"/><linearGradient xlink:href="#a" id="j" x1="88.66" x2="88.66" y1="18.02" y2="41.43"/><linearGradient xlink:href="#a" id="k" x1="50" x2="50" y1="18.02" y2="41.43"/><linearGradient xlink:href="#a" id="l" x1="62.89" x2="62.89" y1="18.02" y2="41.43"/><linearGradient xlink:href="#a" id="m" x1="37.11" x2="37.11" y1="18.02" y2="41.43"/><linearGradient xlink:href="#a" id="n" x1="24.22" x2="24.22" y1="18.02" y2="41.43"/><linearGradient xlink:href="#a" id="o" x1="11.33" x2="11.33" y1="18.02" y2="41.43"/></defs><path fill="#31195d" d="M6.29 12.56h42.16v-1.05c0-1.74.7-3.34 1.83-4.51l.09-.1a6.52 6.52 0 0 1 4.61-1.91h20.48c.94 0 1.8-.39 2.42-1.01s1.01-1.48 1.01-2.42c0-.86.69-1.55 1.55-1.55s1.55.69 1.55 1.55c0 1.8-.74 3.43-1.92 4.61a6.52 6.52 0 0 1-4.61 1.91H54.98c-.94 0-1.8.39-2.42 1.01l-.07.06c-.58.61-.94 1.44-.94 2.35v1.05h42.16c1.73 0 3.3.71 4.45 1.85a6.27 6.27 0 0 1 1.85 4.45v35.79c0 1.73-.71 3.31-1.85 4.45a6.27 6.27 0 0 1-4.45 1.85H6.29c-1.73 0-3.3-.71-4.44-1.85A6.33 6.33 0 0 1 0 54.64V18.85c0-1.73.71-3.3 1.85-4.45a6.27 6.27 0 0 1 4.45-1.85Z"/><path fill="#31195d" d="M93.71 15.66H6.29a3.21 3.21 0 0 0-3.2 3.2v35.79c0 .89.35 1.68.93 2.26s1.38.94 2.26.94h87.41c.87 0 1.67-.36 2.25-.94s.94-1.38.94-2.26v-35.8c0-.87-.36-1.67-.94-2.26-.58-.58-1.38-.94-2.25-.94Z"/><path fill="url(#a)" d="M33.32 44.42h33.35c.85 0 1.55.69 1.55 1.55v7.58c0 .85-.69 1.55-1.55 1.55H33.32c-.86 0-1.55-.69-1.55-1.55v-7.58c0-.85.69-1.55 1.55-1.55"/><path fill="#244170" d="M34.87 47.51h30.26v4.48H34.87z"/><path fill="url(#b)" d="M71.98 31.41h7.58c.85 0 1.55.69 1.55 1.55v7.58c0 .86-.69 1.55-1.55 1.55h-7.58c-.85 0-1.55-.69-1.55-1.55v-7.58c0-.86.69-1.55 1.55-1.55"/><path fill="#244170" d="M73.53 34.51h4.48v4.48h-4.48z"/><path fill="url(#c)" d="M84.87 31.41h7.58c.85 0 1.55.69 1.55 1.55v7.58c0 .86-.69 1.55-1.55 1.55h-7.58c-.85 0-1.55-.69-1.55-1.55v-7.58c0-.86.7-1.55 1.55-1.55"/><path fill="#244170" d="M86.42 34.51h4.48v4.48h-4.48z"/><path fill="url(#d)" d="M46.21 31.41h7.58c.85 0 1.55.69 1.55 1.55v7.58c0 .86-.69 1.55-1.55 1.55h-7.58c-.85 0-1.55-.69-1.55-1.55v-7.58c0-.86.7-1.55 1.55-1.55"/><path fill="#244170" d="M47.75 34.51h4.48v4.48h-4.48z"/><path fill="url(#e)" d="M59.1 31.41h7.58c.85 0 1.55.69 1.55 1.55v7.58c0 .86-.69 1.55-1.55 1.55H59.1c-.85 0-1.55-.69-1.55-1.55v-7.58c0-.86.69-1.55 1.55-1.55"/><path fill="#244170" d="M60.64 34.51h4.48v4.48h-4.48z"/><path fill="url(#f)" d="M33.32 31.41h7.58c.86 0 1.55.69 1.55 1.55v7.58c0 .86-.69 1.55-1.55 1.55h-7.58c-.86 0-1.55-.69-1.55-1.55v-7.58c0-.86.69-1.55 1.55-1.55"/><path fill="#244170" d="M34.87 34.51h4.48v4.48h-4.48z"/><path fill="url(#g)" d="M20.43 31.41h7.58c.85 0 1.55.69 1.55 1.55v7.58c0 .86-.69 1.55-1.55 1.55h-7.58c-.85 0-1.55-.69-1.55-1.55v-7.58c0-.86.69-1.55 1.55-1.55"/><path fill="#244170" d="M21.98 34.51h4.48v4.48h-4.48z"/><path fill="url(#h)" d="M7.54 31.41h7.58c.85 0 1.55.69 1.55 1.55v7.58c0 .86-.69 1.55-1.55 1.55H7.54c-.85 0-1.55-.69-1.55-1.55v-7.58c0-.86.69-1.55 1.55-1.55"/><path fill="#244170" d="M9.09 34.51h4.48v4.48H9.09z"/><path fill="url(#i)" d="M71.98 18.41h7.58c.85 0 1.55.69 1.55 1.55v7.58c0 .85-.69 1.55-1.55 1.55h-7.58c-.85 0-1.55-.69-1.55-1.55v-7.58c0-.85.69-1.55 1.55-1.55"/><path fill="#244170" d="M73.53 21.5h4.48v4.48h-4.48z"/><path fill="url(#j)" d="M84.87 18.41h7.58c.85 0 1.55.69 1.55 1.55v7.58c0 .85-.69 1.55-1.55 1.55h-7.58c-.85 0-1.55-.69-1.55-1.55v-7.58c0-.85.7-1.55 1.55-1.55"/><path fill="#244170" d="M86.42 21.5h4.48v4.48h-4.48z"/><path fill="url(#k)" d="M46.21 18.41h7.58c.85 0 1.55.69 1.55 1.55v7.58c0 .85-.69 1.55-1.55 1.55h-7.58c-.85 0-1.55-.69-1.55-1.55v-7.58c0-.85.7-1.55 1.55-1.55"/><path fill="#244170" d="M47.75 21.5h4.48v4.48h-4.48z"/><path fill="url(#l)" d="M59.1 18.41h7.58c.85 0 1.55.69 1.55 1.55v7.58c0 .85-.69 1.55-1.55 1.55H59.1c-.85 0-1.55-.69-1.55-1.55v-7.58c0-.85.69-1.55 1.55-1.55"/><path fill="#244170" d="M60.64 21.5h4.48v4.48h-4.48z"/><path fill="url(#m)" d="M33.32 18.41h7.58c.86 0 1.55.69 1.55 1.55v7.58c0 .85-.69 1.55-1.55 1.55h-7.58c-.86 0-1.55-.69-1.55-1.55v-7.58c0-.85.69-1.55 1.55-1.55"/><path fill="#244170" d="M34.87 21.5h4.48v4.48h-4.48z"/><path fill="url(#n)" d="M20.43 18.41h7.58c.85 0 1.55.69 1.55 1.55v7.58c0 .85-.69 1.55-1.55 1.55h-7.58c-.85 0-1.55-.69-1.55-1.55v-7.58c0-.85.69-1.55 1.55-1.55"/><path fill="#244170" d="M21.98 21.5h4.48v4.48h-4.48z"/><path fill="url(#o)" d="M7.54 18.41h7.58c.85 0 1.55.69 1.55 1.55v7.58c0 .85-.69 1.55-1.55 1.55H7.54c-.85 0-1.55-.69-1.55-1.55v-7.58c0-.85.69-1.55 1.55-1.55"/><path fill="#244170" d="M9.09 21.5h4.48v4.48H9.09z"/><path fill="#fff" d="M86.42 21.5h4.48v4.48h-4.48zM73.53 21.5h4.48v4.48h-4.48zM60.64 21.5h4.48v4.48h-4.48zM47.75 21.5h4.48v4.48h-4.48zM34.87 21.5h4.48v4.48h-4.48zM21.98 21.5h4.48v4.48h-4.48zM9.09 21.5h4.48v4.48H9.09zM9.09 34.51h4.48v4.48H9.09zM21.98 34.51h4.48v4.48h-4.48zM34.87 34.51h4.48v4.48h-4.48zM47.75 34.51h4.48v4.48h-4.48zM60.64 34.51h4.48v4.48h-4.48zM73.53 34.51h4.48v4.48h-4.48zM86.42 34.51h4.48v4.48h-4.48zM34.87 47.51h30.26v4.48H34.87z"/></svg>