<svg xmlns="http://www.w3.org/2000/svg" viewBox="0 0 53.97 100"><defs><linearGradient id="a" x1="40.86" x2="-11.32" y1="18.16" y2="70.35" gradientUnits="userSpaceOnUse"><stop offset="0" stop-color="#00fff7"/><stop offset="1" stop-color="#1c33ff"/></linearGradient></defs><path fill="#31195d" d="M16.5 100c-.16 0-.32-.03-.47-.08-.59-.21-.96-.83-.87-1.46l5.59-38.86H1.35c-.39 0-.76-.17-1.02-.46s-.37-.68-.32-1.07l7.68-56.9C7.78.5 8.35 0 9.03 0h27.81a1.35 1.35 0 0 1 1.3 1.7l-9.72 36.22h24.19a1.345 1.345 0 0 1 1.15 2.05L17.64 99.35c-.24.4-.69.65-1.15.65Z"/><path fill="url(#a)" d="M29.92 51.66H8.89l5.9-43.72h13.46L18.08 45.86H40.9L27.61 67.71z"/></svg>