<svg xmlns="http://www.w3.org/2000/svg" xmlns:xlink="http://www.w3.org/1999/xlink" viewBox="0 0 54.53 100"><defs><linearGradient id="a" x1="25.5" x2="29.02" y1="4.83" y2="4.83" gradientUnits="userSpaceOnUse"><stop offset="0" stop-color="#00fff7"/><stop offset="1" stop-color="#1c33ff"/></linearGradient><linearGradient xlink:href="#a" id="b" x1="77.73" x2="9.08" y1="41.08" y2="109.73"/><linearGradient xlink:href="#a" id="c" x1="55.14" x2="-13.51" y1="18.49" y2="87.14"/></defs><rect width="54.53" height="100" fill="#31195d" rx="8.9" ry="8.9"/><path fill="url(#a)" d="M27.26 3.07c.97 0 1.76.79 1.76 1.76s-.79 1.76-1.76 1.76-1.76-.79-1.76-1.76.79-1.76 1.76-1.76"/><path fill="url(#b)" d="M23.64 88.34h7.25c1.41 0 2.56 1.15 2.56 2.56v1.28c0 1.41-1.15 2.56-2.56 2.56h-7.25c-1.41 0-2.56-1.15-2.56-2.56V90.9c0-1.41 1.15-2.56 2.56-2.56"/><rect width="42.91" height="73.42" x="5.81" y="9.66" fill="url(#c)" rx="2.28" ry="2.28"/><path fill="#31195d" d="M11.1 25.1v25.07c0 .97.79 1.76 1.75 1.76h28.82c.97 0 1.75-.79 1.75-1.76V25.1c0-.97-.79-1.75-1.75-1.75H12.85c-.97 0-1.75.79-1.75 1.75m19.01 4.26a2.29 2.29 0 1 1 0 4.58 2.29 2.29 0 0 1 0-4.58M17.37 44.45l4.98-11.23c.36-.82 1.53-.82 1.89 0l3.54 7.97c.12.27.48.31.65.07l2.38-3.29c.41-.57 1.26-.57 1.68 0l4.55 6.28c.5.68 0 1.64-.84 1.64H18.31c-.75 0-1.25-.77-.94-1.45Z"/><rect width="8.44" height="8.44" x="11.1" y="55.79" fill="#fff" rx="1.31" ry="1.31"/><rect width="8.44" height="8.44" x="23.04" y="55.79" fill="#fff" rx="1.31" ry="1.31"/><rect width="8.44" height="8.44" x="34.99" y="55.79" fill="#fff" rx="1.31" ry="1.31"/><rect width="32.33" height="4.71" x="11.1" y="14.77" fill="#31195d" rx="1.91" ry="1.91"/><rect width="8.44" height="8.44" x="11.1" y="68.09" fill="#fff" rx="1.31" ry="1.31"/><rect width="8.44" height="8.44" x="23.04" y="68.09" fill="#fff" rx="1.31" ry="1.31"/><rect width="8.44" height="8.44" x="34.99" y="68.09" fill="#fff" rx="1.31" ry="1.31"/></svg>