<svg xmlns="http://www.w3.org/2000/svg" xmlns:xlink="http://www.w3.org/1999/xlink" viewBox="0 0 100 93.46"><defs><linearGradient id="a" x1="58.99" x2="12.78" y1="44.56" y2="90.77" gradientUnits="userSpaceOnUse"><stop offset="0" stop-color="#00fff7"/><stop offset="1" stop-color="#1c33ff"/></linearGradient><linearGradient xlink:href="#a" id="b" x1="59.81" x2="16.05" y1="10.45" y2="54.21"/></defs><path fill="#31195d" fill-rule="evenodd" d="M14.33 38.58h46.41c3.94 0 7.52 1.61 10.12 4.21 2.59 2.59 4.21 6.17 4.21 10.12v26.22c0 3.94-1.61 7.52-4.21 10.12-2.59 2.59-6.18 4.21-10.12 4.21H14.33c-3.94 0-7.52-1.61-10.12-4.21C1.62 86.66 0 83.08 0 79.13V52.91c0-3.94 1.61-7.52 4.21-10.12 2.59-2.59 6.18-4.21 10.12-4.21"/><path fill="url(#a)" fill-rule="evenodd" d="M14.32 84.61c-1.45 0-2.82-.58-3.87-1.62s-1.62-2.41-1.62-3.86V52.91c0-1.45.57-2.82 1.62-3.87a5.46 5.46 0 0 1 3.87-1.62h46.41c1.45 0 2.82.58 3.86 1.62a5.44 5.44 0 0 1 1.62 3.86v26.22c0 1.45-.57 2.82-1.62 3.86a5.45 5.45 0 0 1-3.86 1.62H14.32Z"/><path fill="#31195d" d="M77.93 49.49c5.31-3.07 12.68-7.34 12.71-7.34a6.2 6.2 0 0 1 6.23 0c.94.54 1.74 1.32 2.3 2.28.52.89.83 1.95.83 3.11v36.94c0 1.17-.31 2.22-.83 3.12-.56.96-1.36 1.73-2.3 2.28-.93.54-2.01.85-3.12.85-1.04 0-2.1-.26-3.11-.84-.06 0-7.14-4.1-12.71-7.34V49.48ZM52.58 0c4.88 0 9.3 1.98 12.5 5.18s5.18 7.62 5.18 12.5-1.98 9.3-5.18 12.5-7.62 5.18-12.5 5.18-9.3-1.98-12.5-5.18-5.18-7.62-5.18-12.5 1.98-9.3 5.18-12.5S47.7 0 52.58 0M17.16 8.18c3.75 0 7.15 1.52 9.61 3.98s3.98 5.86 3.98 9.61-1.52 7.15-3.98 9.61-5.86 3.98-9.61 3.98-7.15-1.52-9.61-3.98-3.98-5.86-3.98-9.61 1.52-7.15 3.98-9.61 5.86-3.98 9.61-3.98"/><path fill="url(#b)" d="M57 13.26a6.244 6.244 0 0 0-8.83 0c-1.13 1.13-1.83 2.69-1.83 4.42s.67 3.23 1.76 4.35l.07.07c1.13 1.13 2.69 1.83 4.42 1.83s3.28-.7 4.41-1.83 1.83-2.69 1.83-4.42-.7-3.29-1.83-4.42"/><path fill="#fff" d="M19.93 19c-.71-.71-1.69-1.15-2.78-1.15s-2.07.44-2.78 1.15-1.15 1.69-1.15 2.78.44 2.07 1.15 2.78 1.69 1.15 2.78 1.15 2.07-.44 2.78-1.15 1.15-1.69 1.15-2.78-.44-2.07-1.15-2.78"/></svg>