<svg xmlns="http://www.w3.org/2000/svg" viewBox="0 0 100 100"><defs><linearGradient id="a" x1="71.27" x2=".1" y1="1.4" y2="72.58" gradientUnits="userSpaceOnUse"><stop offset="0" stop-color="#00fff7"/><stop offset="1" stop-color="#1c33ff"/></linearGradient></defs><path fill="#31195d" d="M97.38 84.76a8.927 8.927 0 0 1 0 12.63 8.927 8.927 0 0 1-12.63 0L63.51 76.15c-2.18-2.18-3-5.21-2.45-8.02l-2.8-2.8a36.22 36.22 0 0 1-21.93 7.36c-4.72 0-9.32-.9-13.67-2.66-4.51-1.83-8.56-4.51-12.02-7.98s-6.15-7.51-7.98-12.02C.89 45.68 0 41.08 0 36.36s.9-9.32 2.66-13.67c1.83-4.51 4.51-8.56 7.98-12.02 3.47-3.47 7.51-6.15 12.02-7.98C27.01.92 31.61.03 36.33.03S45.65.93 50 2.69c4.51 1.83 8.56 4.51 12.02 7.98 3.47 3.47 6.15 7.51 7.98 12.02 1.77 4.35 2.66 8.95 2.66 13.67s-.9 9.32-2.66 13.67c-1.2 2.96-2.78 5.73-4.7 8.26l2.8 2.8a8.9 8.9 0 0 1 8.02 2.45l21.24 21.24Z"/><path fill="url(#a)" d="M54.98 54.98c4.98-4.98 7.72-11.6 7.72-18.64s-2.74-13.66-7.72-18.64c-5.14-5.14-11.89-7.71-18.64-7.71s-13.5 2.57-18.64 7.71c-10.28 10.28-10.28 27 0 37.28s27 10.28 37.28 0"/><path fill="#fff" d="M52.12 20.56c.97.97.97 2.55 0 3.53s-2.55.97-3.53 0c-3.27-3.27-7.62-5.08-12.25-5.08s-8.98 1.8-12.25 5.08c-.49.49-1.13.73-1.76.73s-1.28-.24-1.76-.73c-.97-.97-.97-2.55 0-3.53 4.21-4.21 9.82-6.54 15.78-6.54s11.56 2.32 15.78 6.54Z"/></svg>